<svg width="512" height="512" viewBox="0 0 512 512" fill="none" xmlns="http://www.w3.org/2000/svg">
<g clip-path="url(#clip0_3090_14)">
<path d="M183.8 64.0001H60.8C54.9192 63.9816 49.0927 65.1248 43.6548 67.3641C38.217 69.6033 33.2749 72.8945 29.1124 77.0487C24.9498 81.2029 21.6487 86.1383 19.3985 91.5717C17.1483 97.005 15.9934 102.829 16 108.71L16 231.64C16.0166 239.701 19.211 247.43 24.89 253.15L270.58 498.91C278.989 507.292 290.377 511.999 302.25 511.999C314.123 511.999 325.511 507.292 333.92 498.91L450.92 381.91C459.304 373.504 464.012 362.117 464.012 350.245C464.012 338.373 459.304 326.986 450.92 318.58L205.31 72.8901C199.591 67.2092 191.861 64.0145 183.8 64.0001V64.0001ZM144 160C144 166.329 142.123 172.516 138.607 177.778C135.091 183.041 130.093 187.142 124.246 189.564C118.399 191.986 111.965 192.62 105.757 191.385C99.5497 190.15 93.8479 187.103 89.3726 182.627C84.8973 178.152 81.8496 172.45 80.6149 166.243C79.3802 160.036 80.0139 153.601 82.4359 147.754C84.8579 141.907 88.9594 136.909 94.2218 133.393C99.4842 129.877 105.671 128 112 128C120.487 128 128.626 131.371 134.627 137.373C140.629 143.374 144 151.513 144 160Z" fill="#1AA090"/>
<path d="M64 15.9999C64 20.2434 65.6857 24.313 68.6863 27.3136C71.6869 30.3142 75.7565 31.9999 80 31.9999H207.37L468.69 293.31C470.161 294.858 471.927 296.096 473.884 296.951C475.841 297.806 477.949 298.261 480.085 298.288C482.22 298.316 484.34 297.915 486.318 297.111C488.296 296.306 490.093 295.113 491.603 293.603C493.113 292.093 494.306 290.296 495.111 288.318C495.915 286.339 496.316 284.22 496.288 282.085C496.261 279.949 495.806 277.841 494.951 275.884C494.096 273.927 492.858 272.161 491.31 270.69L229.31 8.68991C226.51 5.90291 223.185 3.69963 219.526 2.20789C215.868 0.716145 211.95 -0.0343623 208 -9.15527e-05H80C75.7565 -9.15527e-05 71.6869 1.68561 68.6863 4.68619C65.6857 7.68677 64 11.7564 64 15.9999V15.9999Z" fill="#1AA090"/>
</g>
<defs>
<clipPath id="clip0_3090_14">
<rect width="512" height="512" fill="white" transform="translate(0 512) rotate(-90)"/>
</clipPath>
</defs>
</svg>
